HIERARCHY
ROOT Hips
{
	OFFSET -14.64140 90.27770 -84.91600
	CHANNELS 6 Xposition Yposition Zposition Zrotation Xrotation Yrotation
	JOINT Spine
	{
		OFFSET 0.00000 13.20850 -1.60436
		CHANNELS 3 Zrotation Xrotation Yrotation
		JOINT Spine1
		{
			OFFSET 0.00000 8.61716 0.00000
			CHANNELS 3 Zrotation Xrotation Yrotation
			JOINT Spine2
			{
				OFFSET 0.00000 8.61717 0.00000
				CHANNELS 3 Zrotation Xrotation Yrotation
				JOINT Spine3
				{
					OFFSET 0.00000 8.61717 0.00000
					CHANNELS 3 Zrotation Xrotation Yrotation
					JOINT Neck
					{
						OFFSET 0.00000 11.07920 1.10792
						CHANNELS 3 Zrotation Xrotation Yrotation
						JOINT Neck1
						{
							OFFSET 0.00000 7.08032 0.00000
							CHANNELS 3 Zrotation Xrotation Yrotation
							JOINT Head
							{
								OFFSET 0.00000 7.08031 0.00000
								CHANNELS 3 Zrotation Xrotation Yrotation
								End site
								{
									OFFSET 0.00000 0.00000 0.00000
								}
							}
						}
					}
					JOINT RightShoulder
					{
						OFFSET -0.01000 7.91373 5.19711
						CHANNELS 3 Zrotation Xrotation Yrotation
						JOINT RightArm
						{
							OFFSET -18.41580 0.00000 0.00000
							CHANNELS 3 Zrotation Xrotation Yrotation
							JOINT RightForeArm
							{
								OFFSET -29.11090 0.00000 0.00000
								CHANNELS 3 Zrotation Xrotation Yrotation
								JOINT RightHand
								{
									OFFSET -24.65040 0.00000 0.00000
									CHANNELS 3 Zrotation Xrotation Yrotation
									JOINT RightHandThumb1
									{
										OFFSET -5.35114 -0.85590 3.97906
										CHANNELS 3 Zrotation Xrotation Yrotation
										JOINT RightHandThumb2
										{
											OFFSET -4.52789 0.00000 0.00000
											CHANNELS 3 Zrotation Xrotation Yrotation
											JOINT RightHandThumb3
											{
												OFFSET -2.46976 0.00000 0.00000
												CHANNELS 3 Zrotation Xrotation Yrotation
												End site
												{
													OFFSET 0.00000 0.00000 0.00000
												}
											}
										}
									}
									JOINT RightHandIndex1
									{
										OFFSET -14.26970 0.00000 2.88139
										CHANNELS 3 Zrotation Xrotation Yrotation
										JOINT RightHandIndex2
										{
											OFFSET -5.48836 0.00000 0.00000
											CHANNELS 3 Zrotation Xrotation Yrotation
											JOINT RightHandIndex3
											{
												OFFSET -3.01859 0.00000 0.00000
												CHANNELS 3 Zrotation Xrotation Yrotation
												End site
												{
													OFFSET 0.00000 0.00000 0.00000
												}
											}
										}
									}
									JOINT RightHandMiddle1
									{
										OFFSET -14.26970 0.00000 -0.09147
										CHANNELS 3 Zrotation Xrotation Yrotation
										JOINT RightHandMiddle2
										{
											OFFSET -6.17441 0.00000 0.00000
											CHANNELS 3 Zrotation Xrotation Yrotation
											JOINT RightHandMiddle3
											{
												OFFSET -3.56743 0.00000 0.00000
												CHANNELS 3 Zrotation Xrotation Yrotation
												End site
												{
													OFFSET 0.00000 0.00000 0.00000
												}
											}
										}
									}
									JOINT RightHandRing1
									{
										OFFSET -12.69180 0.00000 -3.06433
										CHANNELS 3 Zrotation Xrotation Yrotation
										JOINT RightHandRing2
										{
											OFFSET -5.62556 0.00000 0.00000
											CHANNELS 3 Zrotation Xrotation Yrotation
											JOINT RightHandRing3
											{
												OFFSET -3.56744 0.00000 0.00000
												CHANNELS 3 Zrotation Xrotation Yrotation
												End site
												{
													OFFSET 0.00000 0.00000 0.00000
												}
											}
										}
									}
									JOINT RightHandPinky1
									{
										OFFSET -11.11390 0.00000 -6.03719
										CHANNELS 3 Zrotation Xrotation Yrotation
										JOINT RightHandPinky2
										{
											OFFSET -4.52789 0.00000 0.00000
											CHANNELS 3 Zrotation Xrotation Yrotation
											JOINT RightHandPinky3
											{
												OFFSET -2.46976 0.00000 0.00000
												CHANNELS 3 Zrotation Xrotation Yrotation
												End site
												{
													OFFSET 0.00000 0.00000 0.00000
												}
											}
										}
									}
								}
							}
						}
					}
					JOINT LeftShoulder
					{
						OFFSET 0.01000 7.91373 5.19711
						CHANNELS 3 Zrotation Xrotation Yrotation
						JOINT LeftArm
						{
							OFFSET 18.41580 0.00000 0.00000
							CHANNELS 3 Zrotation Xrotation Yrotation
							JOINT LeftForeArm
							{
								OFFSET 29.11090 0.00000 0.00000
								CHANNELS 3 Zrotation Xrotation Yrotation
								JOINT LeftHand
								{
									OFFSET 24.65040 0.00000 0.00000
									CHANNELS 3 Zrotation Xrotation Yrotation
									JOINT LeftHandThumb1
									{
										OFFSET 5.35114 -0.85590 3.97906
										CHANNELS 3 Zrotation Xrotation Yrotation
										JOINT LeftHandThumb2
										{
											OFFSET 4.52789 0.00000 0.00000
											CHANNELS 3 Zrotation Xrotation Yrotation
											JOINT LeftHandThumb3
											{
												OFFSET 2.46977 0.00000 0.00000
												CHANNELS 3 Zrotation Xrotation Yrotation
												End site
												{
													OFFSET 0.00000 0.00000 0.00000
												}
											}
										}
									}
									JOINT LeftHandIndex1
									{
										OFFSET 14.26970 0.00000 2.88139
										CHANNELS 3 Zrotation Xrotation Yrotation
										JOINT LeftHandIndex2
										{
											OFFSET 5.48836 0.00000 0.00000
											CHANNELS 3 Zrotation Xrotation Yrotation
											JOINT LeftHandIndex3
											{
												OFFSET 3.01859 0.00000 0.00000
												CHANNELS 3 Zrotation Xrotation Yrotation
												End site
												{
													OFFSET 0.00000 0.00000 0.00000
												}
											}
										}
									}
									JOINT LeftHandMiddle1
									{
										OFFSET 14.26970 0.00000 -0.09147
										CHANNELS 3 Zrotation Xrotation Yrotation
										JOINT LeftHandMiddle2
										{
											OFFSET 6.17440 0.00000 0.00000
											CHANNELS 3 Zrotation Xrotation Yrotation
											JOINT LeftHandMiddle3
											{
												OFFSET 3.56744 0.00000 0.00000
												CHANNELS 3 Zrotation Xrotation Yrotation
												End site
												{
													OFFSET 0.00000 0.00000 0.00000
												}
											}
										}
									}
									JOINT LeftHandRing1
									{
										OFFSET 12.69180 0.00000 -3.06433
										CHANNELS 3 Zrotation Xrotation Yrotation
										JOINT LeftHandRing2
										{
											OFFSET 5.62556 0.00000 0.00000
											CHANNELS 3 Zrotation Xrotation Yrotation
											JOINT LeftHandRing3
											{
												OFFSET 3.56744 0.00000 0.00000
												CHANNELS 3 Zrotation Xrotation Yrotation
												End site
												{
													OFFSET 0.00000 0.00000 0.00000
												}
											}
										}
									}
									JOINT LeftHandPinky1
									{
										OFFSET 11.11390 0.00000 -6.03719
										CHANNELS 3 Zrotation Xrotation Yrotation
										JOINT LeftHandPinky2
										{
											OFFSET 4.52789 0.00000 0.00000
											CHANNELS 3 Zrotation Xrotation Yrotation
											JOINT LeftHandPinky3
											{
												OFFSET 2.46976 0.00000 0.00000
												CHANNELS 3 Zrotation Xrotation Yrotation
												End site
												{
													OFFSET 0.00000 0.00000 0.00000
												}
											}
										}
									}
								}
							}
						}
					}
					JOINT pCube4
					{
						OFFSET 0.00000 10.91090 1.10792
						CHANNELS 3 Zrotation Xrotation Yrotation
						End site
						{
							OFFSET 0.00000 0.00000 0.00000
						}
					}
				}
			}
		}
	}
	JOINT RightUpLeg
	{
		OFFSET -9.98441 0.00000 0.00000
		CHANNELS 3 Zrotation Xrotation Yrotation
		JOINT RightLeg
		{
			OFFSET 0.00000 -42.11790 0.00000
			CHANNELS 3 Zrotation Xrotation Yrotation
			JOINT RightFoot
			{
				OFFSET 0.00000 -45.00020 -0.00001
				CHANNELS 3 Zrotation Xrotation Yrotation
				JOINT RightForeFoot
				{
					OFFSET 0.00000 -3.74820 0.00000
					CHANNELS 3 Zrotation Xrotation Yrotation
					JOINT RightToeBase
					{
						OFFSET 0.00000 0.06325 14.43120
						CHANNELS 3 Zrotation Xrotation Yrotation
						End site
						{
							OFFSET 0.00000 0.00000 0.00000
						}
					}
				}
			}
		}
	}
	JOINT LeftUpLeg
	{
		OFFSET 9.98441 0.00000 0.00000
		CHANNELS 3 Zrotation Xrotation Yrotation
		JOINT LeftLeg
		{
			OFFSET 0.00000 -42.11800 0.00000
			CHANNELS 3 Zrotation Xrotation Yrotation
			JOINT LeftFoot
			{
				OFFSET 0.00000 -45.00070 0.00000
				CHANNELS 3 Zrotation Xrotation Yrotation
				JOINT LeftForeFoot
				{
					OFFSET 0.00000 -3.74824 0.00000
					CHANNELS 3 Zrotation Xrotation Yrotation
					JOINT LeftToeBase
					{
						OFFSET 0.00000 0.06325 14.43110
						CHANNELS 3 Zrotation Xrotation Yrotation
						End site
						{
							OFFSET 0.00000 0.00000 0.00000
						}
					}
				}
			}
		}
	}
}
MOTION
Frames: 4
Frame Time: 0.050000
0.02145081732356134 -0.007611511097921702 -0.0438736119226632 0.0019761855547139866 -0.002409338134051218 0.009482041710748497 -1.857958396842715 1.3885636076467793 -0.8623530328678297 -1.00239827892166 3.8169203612995712 0.427626788267188 -1.1204861988679198 -1.8738033608736364 -0.646273446860581 0.016209061121380527 0.4281082010227361 -0.7662205053583501 -0.19516776423813556 14.140210612456675 -0.03245083072691522 -0.0897373036286081 0.3273596028871753 -2.1223630713210513 -0.06821106712364731 -14.812812406868984 -0.1097389511307562 -6.246223155388165 2.106744911354902 -13.60116689521285 66.7645041140973 14.770121359944666 18.764292813528368 0.6060982848197393 -2.951958186856688 93.6692220159918 8.857098353032828 -0.13731016551524874 -0.5237022743972587 4.567772375413291 -0.10135009666608805 -1.5725561693093655 -0.04252083011371725 -0.027706314859663864 -56.24566505311088 -0.004752282593492366 0.0485202846824338 -56.24291032255106 -38.78951908315477 0.013414500419861284 0.03550879979578634 0.03665715700130566 0.014696142255720373 0.011670905359330729 0.015446843695417618 0.03989391840246594 0.009801287018305986 -36.70199434612052 -0.026258626602287134 0.04266868107414484 0.02430288830995297 0.03417438595508415 0.04863483160106382 0.03853270368571762 -0.029730381201726948 0.012234965853866358 -19.75804887427904 -0.019634968985927093 -0.001373449549797679 -0.03147814791096167 0.0021253953802187597 -0.04958191808725042 0.0010905156586609713 -0.040060307923708426 0.04524390617320568 24.101061117294904 -0.024443514443279385 -0.017263231422999074 28.848575540065667 -0.03261810008432357 0.006040694149085507 28.88751113777164 -0.004287591997417452 -0.02355075968543696 7.875260265514221 1.7982953664085994 12.748990074454635 -65.94275783824591 23.026662481385838 -19.746024198783182 8.10797248042564 -11.957296657491707 -91.07406690788645 -1.5745749347993927 0.894725766911917 -1.3011120361314272 -0.4639460254839827 0.0778840334013447 -8.12954120914324 0.01586124667320566 -0.009695077042473249 44.54816005621104 -0.034388636133782645 -0.03344518018746318 44.571087601939126 12.425083815719404 0.030026770748579266 0.027599689501508796 0.0035135464100413917 -0.0071528450232648585 -0.034993559014296176 -0.030951443285210326 0.013271116424037192 -0.0021048090673458715 11.067535663234976 0.0004839290859616362 -0.02646202414339007 -0.017555276054729025 0.03574308165297094 0.024156957198956337 -0.0041200532627571305 -0.02124003757681406 -0.04077135770904807 4.767426270201488 0.019476485647458706 0.036623858132862154 -0.03152176409575953 0.019233241164245313 0.007041658216668832 0.004443324387820532 -0.038883989277737493 -0.01109101126409002 -5.564231769571811 -0.032885123309532555 -0.028411375923755956 -6.6814825453087945 0.006769344359498246 -0.035440735212261314 -6.701062183827447 0.03247201102576287 0.026760272830329668 -0.04522973191350251 0.047218625770627146 0.0014914412691793197 8.059348657720049 3.4710838964967476 -19.232419371705635 -0.01760515372235258 10.370636654330252 0.017655034593537032 -5.573369206182199 -15.657743948515927 3.1893588908209405 0.029121977992289067 -0.013906800185981779 -0.029066849040033912 -0.029753306572881548 4.740807522266112 0.02387812397738945 12.442989642427559 -8.254517016391524 6.914481080925938 0.004348710685107956 46.347606038758435 0.017856236444533945 -4.290819981217858 -14.76513524130022 -3.8574644259690083 -0.0011268476438155706 -0.0356370970245156 0.0052795900343837205 0.0035585216001763694 -10.723657961589641 -0.04050390774897837 
0.0044891264449427835 -0.03092192105716425 -0.04616640840459841 -0.009380984816446182 -0.022785077682918542 0.038815799358524666 -1.9271210450841445 1.4130383528544763 -0.828693710297787 -0.952274877371406 3.808473182512028 0.4296926718983553 -1.1312454711767357 -1.870722247352237 -0.6666055246929379 -8.353254757264422e-05 0.36445231684551604 -0.8029241280639364 -0.2904356814597509 14.242138551024341 0.06765075537395482 -0.1417238389396629 0.3498838018430386 -1.7513539294364173 -0.07362796707619143 -14.626598104128867 -0.14769324754185462 -6.451880057435614 2.227979063295953 -13.585461608274827 66.01434402063366 12.40722068300914 19.8504060619361 1.6985201435641806 -2.449990080572837 92.98146246076207 9.018225499384974 -0.13697590010296587 -0.41297794685029904 4.488640639075502 -0.15231689836229853 -1.6093327851570873 0.007609412458235983 0.02789922993464519 -56.22323142283077 -0.043883210274969046 -0.01574729316450322 -56.26355064103049 -38.74088392459382 0.020660834533510523 0.007626284866595151 0.008586002478475751 0.004363390653051918 0.013837660677718187 0.0077867338450657315 0.038062039013902704 -0.04967601939220073 -36.68706321090068 0.023619317275070488 -0.02772731959994859 -0.04171637946397189 -0.03514161138005672 -0.016816432538384822 -0.0021461344662268463 -0.021126995485730535 -0.031590052148109844 -19.757879161520307 0.0020581941513472426 0.01587458839714427 -0.014734555435712041 0.02378117729186203 0.018518703558605538 0.009155038951721978 -0.04921398977026009 0.012137057028216285 24.03119934573509 -0.01690757324189933 0.018430712541489154 28.848548652794637 0.043383747738633384 -0.0129690112529113 28.865115466321864 -0.031151224649672585 -0.009635891319813263 8.312583338531505 1.814370631898991 12.693977735769465 -65.2583316508641 21.13525830414501 -22.124039732032596 5.593349438856727 -10.251608626829954 -90.27884132702032 -1.9240768149492338 1.2315896948096317 -1.4668522734103662 -0.45544166533142694 0.09941846147077063 -8.121525782735693 0.04310736968690269 0.041122813246802274 44.52476696239565 -0.003449046766169975 0.019725611291060062 44.52107467314488 12.482805741246771 -0.011991481863919023 0.03888341960156609 -0.004943222490393225 0.011017650846126733 -0.0052067122353650535 -0.009103784334960037 -0.020818642074284237 0.01694444766775166 11.107790056288138 0.039011475683860694 0.03401595242935031 -0.025397054402843157 -0.016717313156735147 0.010191983465584607 0.04687340714910111 0.0483309499945492 0.006256170320888915 4.7321010918165305 -0.022573431431282247 -0.03125805663792272 -0.03186064629515764 -0.00690172250140829 -0.018753385545388745 -0.02294795953748556 0.03212567556645624 -0.0421921295515314 -5.617071925398534 -0.043089718513207434 -0.002561300087164677 -6.728153616129023 -0.015303201854191439 -9.657656520432131e-05 -6.722106406044935 -0.012464443497778376 0.018111228071107648 -0.006102929260016544 -0.01968035812098159 -0.004077967953203702 8.034293185466394 3.4441195672097233 -19.17395405656369 -0.01195574174836235 10.381183532453875 -0.0019019972211212662 -5.605282110606175 -15.629535627263557 3.1892630271243636 0.0006320441042887929 0.04755309120566761 0.006562524742466074 -0.02376782404556839 4.696361925037344 0.015181463862125292 12.414633891282428 -8.28330233286787 6.920885308345364 -0.030166183210406598 46.39676458206595 -0.022090308603139874 -4.334099945192995 -14.75626511506697 -3.803351290496864 -0.016496089318763334 -0.043207389539186576 0.03449581262379832 0.0023676817990643017 -10.756098814622685 0.03554858667001675 
-0.01654282829590432 0.02447452038321245 -0.028707822695790437 -0.038818059872884274 -0.040389952596232105 -0.023611879493036673 -2.017204578550888 1.4819086654988103 -0.8831301702601466 -0.9718856789405964 3.8438981997904436 0.36217527054850146 -1.1607175113396482 -1.8946823193001527 -0.8749486504638327 -0.09544300118676077 0.2940544051943639 -0.8044445144298029 -0.3646921669412581 14.489468900236732 0.15007232608822388 -0.11048154475878895 0.5180704038397345 -1.499367389828095 -0.14106692895371267 -14.541229810807353 -0.11296790827762636 -6.798728774887227 2.3304054000919883 -13.439353436506774 65.19643157916207 10.015834047082581 21.27503694633946 2.159887913669704 -2.2019103944755827 92.69993982985574 9.232338159797088 -0.1005258318585914 -0.3973618911059123 4.522410930496649 -0.12215375559705668 -1.612027726080946 0.04409960142260683 0.038182256168955084 -56.28098115408068 0.008472958631387554 -0.034035139565336006 -56.26417029896843 -38.74767373609014 0.020403002975980442 0.010086850330628738 -0.029392537262768657 -0.021311148414816797 0.0007830032684208389 -0.020472162111944584 -0.004897058852328901 0.04224439920406723 -36.7358079811005 -0.027140912653605284 0.0076584170623396714 -0.03836367024192162 0.008471607054597685 -0.00884231292548269 0.011860815648269574 0.021630150966054223 0.01471496718205594 -19.749280978173214 -0.027143215413963324 0.04082540130855034 -0.011369356439661223 0.004040475479582023 -0.01811852672653444 -0.03064547357144618 0.0329044666527386 0.03586387621426177 24.0777930803944 0.04121011587707126 -0.02287192161874539 28.85909216187559 -0.02968001050653753 0.007473730885633843 28.90589573166899 -0.003358466976067039 -0.02475535896544777 8.89505891332996 1.919990836189484 12.589872129958318 -64.31495053120194 19.468478563232154 -24.7161101872567 3.7743809535864914 -8.851654844038887 -89.90985804738894 -2.4226429936382834 1.3797987874702393 -1.3863999032881882 -0.517404352611317 0.09166793120619354 -8.164710602535376 -0.02230854360785356 0.046638246773319604 44.574678081328386 0.024867093713274453 -0.046259842203426674 44.53939927401309 12.434731736723743 -0.00594574694997681 -0.007280991399427553 0.03680406368914187 -0.0031601771694140476 -0.006952298533508319 -0.04558958469890019 -0.013414908055928173 0.024996942637507513 11.08212274611699 -0.010613967043710036 0.004844459607883553 -0.03125288405243288 -0.01815790501666641 0.027838862490459325 0.016974757007833487 -0.0074005646936511635 -0.04556067448666552 4.775655106828288 0.02853109194261632 -0.030108670064835787 0.03754254061222247 0.0036270699242038685 -0.036467480456926514 0.04296222820312996 0.03962527297645536 0.04539094678963675 -5.636644334375711 -0.049373643937237026 -0.01915733759214196 -6.736986254075258 0.038928852912216844 0.021557869067083586 -6.692857385945589 -0.002523265381275611 -0.009843068267323526 0.02083054975996318 -0.01913316161668037 -0.0013638511900194775 8.051264421449858 3.5111864590932127 -19.204804705300976 0.038854841660305374 10.403215531728415 0.009040678589653822 -5.6385789522131065 -15.646513182420476 3.1819769041784585 -0.001836201570651217 0.0002854497092009795 0.03446342164716841 0.018351511778200786 4.740908277701426 -0.029816846278614643 12.433286477143865 -8.241734084350206 6.891227903806908 -0.03397040238455647 46.37722517791846 -0.00850670121280116 -4.32768425254227 -14.755521026619965 -3.817880269205056 -0.048572091342126686 -0.010487979991245412 -0.015376063884361066 0.04188736353463015 -10.738273456547025 0.00917148897544907 
-0.006892131893753803 0.022976615335155492 0.021259327458170843 0.0036312553863480667 -0.02926595023664663 -0.028747391906378428 -2.1054300002020168 1.4507086835335805 -0.8063566623351143 -1.0463650544926055 3.7759264741406806 0.37351164896442524 -1.1826516429405007 -1.9135420717148612 -0.9747671048515346 -0.17056339524866732 0.2933493917451063 -0.8021449749336924 -0.38868241267870146 14.687839683956918 0.19817568506217725 -0.17458078417949718 0.6044726136527181 -1.338218085600601 -0.2040415406119705 -14.423363821898574 -0.09240431709808636 -7.15260901427565 2.401969788521365 -13.486483792130368 64.37320517037037 7.694622587458697 22.81702665315239 1.6646378911680306 -2.1071778934613414 92.95089959315516 8.901800735737107 -0.07495645868594902 -0.19792751440267534 4.54955957170628 -0.0949216100983803 -1.6011068170109375 0.04302341983639015 0.024630847760229845 -56.27718632203948 0.022953269323565416 -0.013803172841889606 -56.234469311015935 -38.75789265162476 0.03716603120085337 -0.0009264224802528468 -0.01275775217667989 0.0029665982530979185 0.005819200906176027 0.0014285611595819692 -0.037111412174134 0.02202787087263403 -36.7247245711315 -0.014983848219783722 0.030697343870247338 0.012718065539013383 0.01113456796347426 -0.029524836102843337 -0.0056612438693962215 -0.028758235334143328 -0.03600024202508257 -19.79312203569814 0.031698130882982234 0.008051275669546809 0.030931759499645526 -0.0031579012627093762 0.025945695466499146 0.014865825497327517 0.016960414421981276 -0.026915337169146448 24.0416286967391 0.038128022562419525 -0.015062091811921467 28.8799299117294 -0.02406550294424219 -0.008853851965520902 28.826754989667297 0.008080576306435381 -0.030447817815111987 9.450036163777655 2.041463076145356 12.57887321407374 -63.263050079158795 18.017787555203576 -27.693542237204905 2.3515395535665284 -7.559158648696975 -90.4094741448266 -2.5392926050851727 1.5432012982039616 -1.585132220680406 -0.45501237276124834 0.10058681610393316 -8.149461661841487 -0.04849939646798029 0.03245489348310681 44.56904250544825 -0.004504124810318169 0.0017135369526859502 44.57059127345923 12.497608072512389 -0.008315145458055631 0.02158436082460402 -0.013516787901618857 0.008543016756611352 0.04852422137822893 -0.018943987650874773 -0.005070947087947074 0.01896689002870101 11.095625217217831 0.004467698703811639 0.04113255945099567 -0.012080707859900171 -0.017199790363301715 0.024971646130166954 -0.03282267139345939 -0.005909721406118768 -0.028926639420614728 4.798350516983199 -0.0011265722785293905 -0.004052804698148679 -0.04770084549090581 0.038055529977926134 -0.005504817704338908 -0.02856783940566196 0.01574908244952295 0.01792827763467173 -5.587331222007243 -0.045438831299336256 0.006770806230129303 -6.707631928741269 0.0001979228345101537 -0.049225563694078336 -6.718466088910442 -0.026474855354025457 -0.00019836266488469238 -0.007640740147503807 -0.0145041968281109 0.038665009358428704 8.049932266439328 3.4968728316682887 -19.23220369654649 0.00029603990140379926 10.374331188489618 -0.007587695987563103 -5.663585537863121 -15.669412244641117 3.201055886522529 -0.04114614182325276 0.04570519960112146 -0.022567714191385348 -0.035504548706553146 4.685348349274542 -0.044980026906440845 12.490306960368445 -8.235564296760721 6.878044367810123 0.005068685943646451 46.332866206080055 0.02936553509979865 -4.306782479711264 -14.736183087384124 -3.7955758695061044 -0.0423606181215419 -0.004819497579853579 -0.042022803075753935 -0.008515923111873441 -10.752027575564766 -0.02232129966106955 
